{
	"nodes":[{
		"name":"BAKING_scene.1",
		"translation":[-1.2605916261672974,
		-251.7023162841797,
		-307.1000061035156],
		"rotation":[0.0,
		0.0,
		0.0,
		-1.0],
		"scale":[1.0,
		1.0,
		1.0],
		"mesh":0
	}],
	"asset":{
		"version":"2.0",
		"generator":"Created using the official Cinema 4D glTF Exporter 1.000x284978"
	},
	"scenes":[{
		"nodes":[0]
	}],
	"meshes":[{
		"name":"BAKING_scene.1",
		"primitives":[{
			"attributes":{
				"POSITION":1,
				"NORMAL":2,
				"TEXCOORD_0":3
			},
			"indices":0,
			"material":0
		}]
	}],
	"accessors":[{
		"bufferView":0,
		"max":[40173],
		"type":"SCALAR",
		"componentType":5123,
		"count":191166,
		"byteOffset":0,
		"min":[0]
	},
	{
		"bufferView":1,
		"max":[2550.7216796875,
		1046.6666259765626,
		1480.1201171875],
		"type":"VEC3",
		"componentType":5126,
		"count":40174,
		"byteOffset":0,
		"min":[-2548.200439453125,
		-1699.9248046875,
		-3745.677978515625]
	},
	{
		"bufferView":1,
		"max":[1.0,
		1.0,
		1.0],
		"type":"VEC3",
		"componentType":5126,
		"count":40174,
		"byteOffset":12,
		"min":[-1.0,
		-1.0,
		-1.0]
	},
	{
		"bufferView":1,
		"max":[0.9950248599052429,
		0.9950248003005981],
		"type":"VEC2",
		"componentType":5126,
		"count":40174,
		"byteOffset":24,
		"min":[0.0016737818950787187,
		0.0016736460383981467]
	}],
	"bufferViews":[{
		"buffer":0,
		"byteOffset":0,
		"byteLength":382332,
		"target":34963
	},
	{
		"buffer":0,
		"byteOffset":382332,
		"byteLength":1285568,
		"target":34962,
		"byteStride":32
	}],
	"buffers":[{
		"uri":"data:application/octet-stream;base64,",
		"byteLength":1667900
	}],
	"images":[{
		"uri":"data:image/jpeg;base64,"
	}],
	"samplers":[{
		"magFilter":9729,
		"minFilter":9729,
		"wrapS":10497,
		"wrapT":10497
	}],
	"textures":[{
		"sampler":0,
		"source":0
	}],
	"materials":[{
		"name":"Mat.1",
		"pbrMetallicRoughness":{
			"baseColorTexture":{
				"index":0
			},
			"baseColorFactor":[0.8,
			0.8,
			0.8,
			1.0],
			"metallicFactor":0.0,
			"roughnessFactor":0.6
		},
		"emissiveFactor":[0.0,
		0.0,
		0.0],
		"alphaMode":"OPAQUE",
		"doubleSided":true
	}]
}